<svg xmlns="http://www.w3.org/2000/svg" width="1920" height="1080" viewBox="0 0 1920 1080">
  <rect width="1920" height="1080" fill="#1a1d21"/>
  <rect y="1020" width="1920" height="60" fill="#1f2937"/>
  <rect x="0" y="120" width="16" height="960" fill="#374151" rx="2"/><rect x="380.8" y="120" width="16" height="960" fill="#374151" rx="2"/><rect x="761.6" y="120" width="16" height="960" fill="#374151" rx="2"/><rect x="1142.4" y="120" width="16" height="960" fill="#374151" rx="2"/><rect x="1523.2" y="120" width="16" height="960" fill="#374151" rx="2"/><rect x="1904" y="120" width="16" height="960" fill="#374151" rx="2"/>
  <rect x="0" y="130" width="1920" height="8" fill="#4b5563"/>
  <rect x="0" y="320" width="1920" height="8" fill="#4b5563"/>
  <rect x="16" y="140" width="360.8" height="80" fill="#f59e0b" opacity="0.85"/><rect x="16" y="240" width="360.8" height="80" fill="#f59e0b" opacity="0.65"/><rect x="16" y="340" width="360.8" height="80" fill="#f59e0b" opacity="0.85"/><rect x="396.8" y="140" width="360.8" height="80" fill="#f59e0b" opacity="0.85"/><rect x="396.8" y="240" width="360.8" height="80" fill="#f59e0b" opacity="0.65"/><rect x="396.8" y="340" width="360.8" height="80" fill="#f59e0b" opacity="0.85"/><rect x="777.6" y="140" width="360.8" height="80" fill="#f59e0b" opacity="0.85"/><rect x="777.6" y="240" width="360.8" height="80" fill="#f59e0b" opacity="0.65"/><rect x="777.6" y="340" width="360.8" height="80" fill="#f59e0b" opacity="0.85"/><rect x="1158.4" y="140" width="360.8" height="80" fill="#f59e0b" opacity="0.85"/><rect x="1158.4" y="240" width="360.8" height="80" fill="#f59e0b" opacity="0.65"/><rect x="1158.4" y="340" width="360.8" height="80" fill="#f59e0b" opacity="0.85"/><rect x="1539.2" y="140" width="360.8" height="80" fill="#f59e0b" opacity="0.85"/><rect x="1539.2" y="240" width="360.8" height="80" fill="#f59e0b" opacity="0.65"/><rect x="1539.2" y="340" width="360.8" height="80" fill="#f59e0b" opacity="0.85"/>
  <text x="960" y="50" text-anchor="middle" fill="white" font-family="Arial,sans-serif" font-size="28" font-weight="bold">Забор под ключ</text>
  <rect x="0" y="0" width="1920" height="1080" fill="#000" opacity="0.15"/>
</svg>