<svg xmlns="http://www.w3.org/2000/svg" width="800" height="600" viewBox="0 0 800 600">
  <rect width="800" height="600" fill="#27272a"/>
  <rect y="540" width="800" height="60" fill="#1f2937"/>
  <rect x="0" y="120" width="16" height="480" fill="#374151" rx="2"/><rect x="156.8" y="120" width="16" height="480" fill="#374151" rx="2"/><rect x="313.6" y="120" width="16" height="480" fill="#374151" rx="2"/><rect x="470.40000000000003" y="120" width="16" height="480" fill="#374151" rx="2"/><rect x="627.2" y="120" width="16" height="480" fill="#374151" rx="2"/><rect x="784" y="120" width="16" height="480" fill="#374151" rx="2"/>
  <rect x="0" y="130" width="800" height="8" fill="#4b5563"/>
  <rect x="0" y="320" width="800" height="8" fill="#4b5563"/>
  <rect x="16" y="140" width="136.8" height="80" fill="#f97316" opacity="0.85"/><rect x="16" y="240" width="136.8" height="80" fill="#f97316" opacity="0.65"/><rect x="16" y="340" width="136.8" height="80" fill="#f97316" opacity="0.85"/><rect x="172.8" y="140" width="136.8" height="80" fill="#f97316" opacity="0.85"/><rect x="172.8" y="240" width="136.8" height="80" fill="#f97316" opacity="0.65"/><rect x="172.8" y="340" width="136.8" height="80" fill="#f97316" opacity="0.85"/><rect x="329.6" y="140" width="136.8" height="80" fill="#f97316" opacity="0.85"/><rect x="329.6" y="240" width="136.8" height="80" fill="#f97316" opacity="0.65"/><rect x="329.6" y="340" width="136.8" height="80" fill="#f97316" opacity="0.85"/><rect x="486.40000000000003" y="140" width="136.8" height="80" fill="#f97316" opacity="0.85"/><rect x="486.40000000000003" y="240" width="136.8" height="80" fill="#f97316" opacity="0.65"/><rect x="486.40000000000003" y="340" width="136.8" height="80" fill="#f97316" opacity="0.85"/><rect x="643.2" y="140" width="136.8" height="80" fill="#f97316" opacity="0.85"/><rect x="643.2" y="240" width="136.8" height="80" fill="#f97316" opacity="0.65"/><rect x="643.2" y="340" width="136.8" height="80" fill="#f97316" opacity="0.85"/>
  <text x="400" y="50" text-anchor="middle" fill="white" font-family="Arial,sans-serif" font-size="28" font-weight="bold">Монтаж</text>
  <rect x="0" y="0" width="800" height="600" fill="#000" opacity="0.15"/>
</svg>